<svg width="15" height="15" viewBox="0 0 15 15" fill="none" xmlns="http://www.w3.org/2000/svg">
<path d="M6.01502 13.4139C8.82721 13.4139 11.1069 11.1342 11.1069 8.32202C11.1069 5.50983 8.82721 3.2301 6.01502 3.2301C3.20283 3.2301 0.923096 5.50983 0.923096 8.32202C0.923096 11.1342 3.20283 13.4139 6.01502 13.4139Z" fill="#B0EF8F"/>
<path d="M6.07259 12.2577L6.008 12.1477C5.02147 10.4668 2.39987 6.89977 2.37339 6.86395L2.33557 6.81257L3.22873 5.92988L6.056 7.90408C7.83613 5.59411 9.49686 4.00751 10.5801 3.081C11.7652 2.0675 12.5366 1.60091 12.5443 1.59644L12.5619 1.58594H14.0769L13.9322 1.71482C10.2102 5.03 6.17598 12.0761 6.13579 12.1469L6.07259 12.2577Z" fill="#009045"/>
</svg>
