<svg width="20" height="20" viewBox="0 0 20 20" fill="none" xmlns="http://www.w3.org/2000/svg">
<g clip-path="url(#clip0_537_71)">
<path d="M10 0C4.48578 0 0 4.48578 0 10C0 15.5142 4.48578 20 10 20C15.5142 20 20 15.5142 20 10C20 4.48578 15.5142 0 10 0Z" fill="#F44336"/>
<path d="M13.6825 12.5041C14.0082 12.8301 14.0082 13.3567 13.6825 13.6826C13.6051 13.7601 13.5133 13.8215 13.4122 13.8634C13.311 13.9053 13.2026 13.9268 13.0932 13.9267C12.8799 13.9267 12.6666 13.8451 12.504 13.6826L9.99991 11.1783L7.49581 13.6826C7.41852 13.7601 7.32668 13.8216 7.22557 13.8635C7.12447 13.9054 7.01608 13.9269 6.90663 13.9268C6.79717 13.9269 6.68877 13.9054 6.58765 13.8635C6.48653 13.8216 6.39468 13.7601 6.31737 13.6826C5.99159 13.3567 5.99159 12.8301 6.31737 12.5041L8.82163 10L6.31733 7.49593C5.99155 7.17 5.99155 6.64339 6.31733 6.3175C6.64327 5.99171 7.16987 5.99171 7.49581 6.3175L9.99991 8.82175L12.504 6.31746C12.83 5.99167 13.3566 5.99167 13.6825 6.31746C14.0082 6.64339 14.0082 7.17 13.6825 7.49593L11.1782 10L13.6825 12.5041Z" fill="#FAFAFA"/>
</g>
<defs>
<clipPath id="clip0_537_71">
<rect width="20" height="20" fill="white"/>
</clipPath>
</defs>
</svg>
